<?xml version="1.0" standalone="no"?>
<!DOCTYPE svg PUBLIC "-//W3C//DTD SVG 20010904//EN"
 "http://www.w3.org/TR/2001/REC-SVG-20010904/DTD/svg10.dtd">
<svg version="1.0" xmlns="http://www.w3.org/2000/svg"
 width="800.000000pt" height="800.000000pt" viewBox="0 0 800.000000 800.000000"
 preserveAspectRatio="xMidYMid meet">

<g transform="translate(0.000000,800.000000) scale(0.100000,-0.100000)"
fill="#000000" stroke="none">
<path d="M2881 5780 c-62 -27 -112 -82 -161 -180 l-49 -98 -93 30 c-213 69
-314 83 -521 74 -167 -7 -243 -21 -372 -67 -194 -68 -308 -141 -473 -303 -236
-230 -354 -389 -477 -641 -161 -331 -195 -440 -202 -651 -6 -153 6 -267 38
-389 27 -105 66 -187 145 -308 170 -259 381 -462 568 -547 135 -62 461 -105
656 -88 117 10 360 73 443 114 115 56 170 101 300 244 87 94 112 139 182 315
71 181 116 274 134 279 9 2 47 10 85 17 95 17 130 49 156 144 42 152 36 247
-19 299 -31 30 -123 58 -251 76 -41 6 -126 22 -189 36 -169 39 -237 26 -284
-54 -26 -45 -97 -288 -97 -333 0 -48 20 -90 56 -118 l27 -21 -18 -46 c-9 -25
-36 -73 -59 -107 -48 -71 -121 -117 -231 -144 -56 -14 -81 -15 -149 -6 -69 9
-103 21 -226 81 -197 95 -249 136 -296 232 -56 115 -64 149 -64 289 0 151 11
223 51 356 41 134 86 229 163 344 114 171 235 285 442 415 109 68 162 89 280
112 82 15 220 21 231 10 3 -2 -11 -60 -31 -127 -20 -67 -36 -137 -36 -154 0
-48 19 -92 47 -110 30 -20 232 -48 279 -40 60 10 81 40 183 250 54 112 128
252 164 312 102 170 129 230 135 298 4 56 2 63 -24 91 -19 20 -66 45 -139 74
-93 37 -123 44 -195 47 -47 1 -96 -2 -109 -7z"/>
<path d="M5905 5336 c-16 -7 -40 -25 -53 -38 -31 -34 -72 -152 -72 -210 0 -41
5 -52 38 -86 42 -45 95 -64 224 -82 46 -6 88 -13 94 -15 8 -2 2 -41 -17 -122
-33 -137 -79 -366 -144 -713 -92 -497 -116 -601 -196 -859 -87 -279 -93 -319
-49 -366 32 -34 70 -44 196 -54 221 -18 502 -51 599 -71 55 -11 143 -24 194
-30 52 -6 96 -12 97 -13 1 -1 -6 -43 -17 -92 -10 -50 -23 -111 -28 -136 -24
-114 23 -161 189 -189 36 -6 94 -20 129 -31 128 -39 198 -21 248 64 45 75 61
140 83 337 11 96 27 234 36 306 19 146 16 174 -26 215 -28 28 -31 29 -140 29
-73 0 -147 7 -216 21 -57 12 -115 18 -129 15 -32 -8 -91 -61 -121 -108 -16
-26 -32 -38 -47 -38 -40 0 -209 50 -274 81 l-63 30 0 54 c0 124 72 546 130
755 32 117 47 188 90 435 17 94 37 200 46 237 16 66 16 67 56 73 66 11 108 62
158 190 51 130 56 184 21 232 -38 51 -97 69 -266 82 -158 11 -378 46 -557 87
-120 27 -169 29 -213 10z"/>
<path d="M5145 4966 c-101 -25 -257 -123 -380 -238 -127 -118 -260 -332 -321
-513 -35 -107 -36 -112 -37 -275 -2 -159 -1 -168 27 -240 51 -135 81 -184 155
-252 38 -35 96 -78 128 -95 74 -40 256 -109 309 -117 49 -9 205 17 276 45 128
50 294 190 379 318 66 100 154 281 173 356 29 117 41 276 28 380 -23 180 -70
275 -211 431 -168 184 -335 247 -526 200z m217 -663 l93 -48 3 -73 c2 -60 -1
-82 -21 -125 -31 -66 -92 -136 -157 -177 -67 -43 -153 -52 -202 -22 -77 49
-89 66 -100 144 -10 73 -10 75 25 150 42 92 78 142 132 181 35 25 46 28 87 23
29 -3 84 -24 140 -53z"/>
<path d="M3685 4911 c-38 -9 -113 -38 -165 -65 -129 -67 -219 -157 -280 -279
-41 -81 -44 -95 -48 -180 -7 -177 35 -304 133 -394 157 -146 276 -203 425
-203 144 0 250 43 362 149 275 258 326 635 114 854 -95 99 -208 137 -401 136
-38 -1 -101 -8 -140 -18z m231 -428 c57 -37 41 -156 -31 -242 -28 -32 -31 -33
-85 -28 -99 9 -140 45 -140 123 0 62 40 123 105 158 35 18 115 13 151 -11z"/>
</g>
</svg>
