<?xml version="1.0" standalone="no"?>
<!DOCTYPE svg PUBLIC "-//W3C//DTD SVG 20010904//EN"
 "http://www.w3.org/TR/2001/REC-SVG-20010904/DTD/svg10.dtd">
<svg version="1.0" xmlns="http://www.w3.org/2000/svg"
 width="900.000000pt" height="1480.000000pt" viewBox="0 0 900.000000 1480.000000"
 preserveAspectRatio="xMidYMid meet">

<g transform="translate(0.000000,1480.000000) scale(0.100000,-0.100000)"
fill="#000000" stroke="none">
<path d="M6680 14365 c0 -49 6 -56 37 -44 20 7 21 9 5 43 -24 54 -42 54 -42 1z"/>
<path d="M6759 14242 c-9 -16 -52 -54 -96 -85 -85 -60 -126 -98 -88 -82 75 31
149 55 169 55 29 0 58 -32 71 -78 9 -33 15 -37 54 -44 55 -9 63 -4 46 30 -23
46 -45 99 -45 111 0 6 -4 11 -9 11 -6 0 -25 25 -43 55 -18 30 -35 55 -38 55
-3 0 -12 -13 -21 -28z"/>
<path d="M6757 13953 c-5 -7 -16 -13 -25 -13 -9 0 -29 -15 -44 -34 -33 -41
-23 -56 37 -56 29 0 36 3 25 10 -13 8 -13 10 2 10 24 0 27 9 19 55 -4 25 -9
35 -14 28z"/>
<path d="M7275 13782 c-53 -33 -217 -82 -255 -77 -19 2 -61 6 -93 9 -51 4 -57
3 -46 -10 7 -8 15 -35 19 -60 7 -44 6 -45 -19 -42 -24 3 -26 7 -26 53 0 56
-23 137 -36 129 -5 -3 -9 -33 -9 -67 0 -69 -13 -102 -30 -77 -5 8 -8 20 -6 27
8 19 -19 45 -49 47 -17 2 -43 7 -59 11 -43 12 -24 -10 34 -40 44 -22 51 -30
65 -77 8 -28 15 -63 15 -77 0 -18 3 -22 9 -13 6 10 13 4 28 -21 12 -19 24 -44
28 -56 4 -12 15 -21 26 -21 11 0 17 -5 14 -10 -4 -6 -11 -8 -16 -5 -25 16 7
-83 38 -117 9 -10 30 -18 48 -18 21 0 39 -9 57 -27 31 -34 121 -173 124 -192
2 -7 16 -25 32 -40 35 -30 49 -68 63 -166 35 -254 182 -702 270 -827 27 -38
24 -58 -8 -58 -20 0 -24 -3 -14 -9 9 -6 -2 -12 -38 -20 -29 -6 -65 -18 -81
-26 -46 -24 -32 6 15 33 19 11 19 11 -5 12 -15 0 -30 -4 -35 -8 -6 -5 -26 -15
-45 -22 -19 -7 -47 -22 -62 -32 -38 -26 -35 -13 4 23 52 47 -6 32 -89 -24 -24
-15 -43 -26 -43 -24 0 8 47 54 61 60 8 4 -2 4 -21 1 -19 -4 -40 -10 -46 -15
-6 -5 -14 -6 -17 -2 -4 3 -7 1 -7 -6 0 -9 -8 -11 -25 -7 -18 5 -39 -1 -71 -20
-25 -15 -47 -24 -50 -21 -3 3 8 13 25 23 39 23 40 38 1 31 -37 -8 -68 2 -48
14 28 18 -23 9 -62 -11 -35 -18 -40 -19 -40 -4 0 12 -6 15 -24 10 -33 -8 -56
2 -56 25 0 35 -68 -38 -76 -80 -9 -47 -18 -58 -78 -87 -59 -28 -56 -28 -56 -9
0 8 -8 16 -17 16 -10 1 -29 3 -43 5 -14 2 -43 5 -65 8 -70 9 -132 24 -105 25
43 2 1 21 -47 21 -24 0 -43 3 -43 8 0 4 -34 29 -75 57 -67 44 -94 75 -64 75 5
0 7 -4 4 -10 -3 -5 -1 -10 4 -10 6 0 11 10 11 22 0 21 1 21 28 -5 15 -15 35
-27 43 -27 8 0 30 -11 49 -25 23 -17 36 -21 41 -14 4 7 11 0 17 -17 10 -28 11
-28 17 -6 8 25 25 30 25 7 0 -18 16 -20 24 -2 5 10 7 10 12 0 3 -7 12 -13 19
-13 7 0 16 -6 19 -12 5 -10 7 -10 12 0 8 17 25 15 18 -2 -5 -12 3 -15 38 -13
23 1 49 7 55 14 10 8 26 8 68 -2 l55 -12 22 31 c12 17 25 33 28 36 4 3 13 20
21 38 8 18 19 30 26 28 7 -3 15 3 18 13 3 10 28 44 56 76 56 65 84 114 94 169
4 21 14 40 22 43 7 3 20 18 28 34 20 38 21 207 1 234 -13 18 -14 18 -9 -8 3
-16 1 -27 -6 -27 -6 0 -11 6 -11 13 0 7 -9 19 -20 27 -13 9 -18 21 -14 33 3
10 0 24 -6 32 -7 8 -10 22 -6 30 3 8 0 15 -6 15 -6 0 -8 -11 -4 -31 5 -26 3
-30 -13 -24 -11 3 -22 1 -26 -5 -3 -5 -11 -10 -16 -10 -6 0 -8 4 -5 8 12 19
16 132 6 132 -6 0 -8 -4 -5 -10 3 -5 -1 -10 -9 -10 -9 0 -16 -4 -16 -10 0 -19
-17 -10 -29 17 -8 18 -9 29 -1 37 5 5 10 18 10 27 0 10 6 19 13 22 9 3 7 13
-7 38 -11 19 -25 37 -32 42 -7 4 -15 21 -19 37 -4 17 -13 30 -21 30 -16 0 -19
-17 -4 -22 5 -1 11 -16 12 -32 2 -17 9 -31 18 -33 9 -2 21 -13 28 -23 12 -20
14 -18 -52 -37 -16 -4 -18 -1 -14 27 4 29 3 31 -19 27 -23 -4 -32 7 -14 17 6
4 5 17 -1 34 -9 23 -17 27 -51 29 -47 3 -70 19 -47 33 10 7 11 10 3 10 -7 0
-13 7 -13 15 0 10 11 15 35 15 43 0 47 22 10 56 -26 24 -60 23 -51 -1 2 -7 2
-16 -2 -19 -3 -4 -14 13 -23 36 -9 24 -23 44 -32 46 -16 3 -50 -26 -79 -68
-16 -23 -17 -23 -17 -5 -1 11 6 32 13 47 9 16 11 30 5 33 -5 3 -16 -12 -25
-34 -9 -23 -20 -38 -25 -35 -5 3 -5 13 0 23 6 10 7 27 4 39 -6 25 -33 30 -33
7 0 -20 -19 -19 -42 2 -17 15 -18 15 -18 -10 0 -15 -4 -27 -10 -27 -5 0 -10
10 -10 23 0 18 -2 19 -10 7 -5 -8 -10 -11 -10 -6 0 5 -7 3 -15 -4 -12 -10 -15
-9 -15 6 -1 18 -1 18 -14 2 -7 -10 -24 -18 -37 -18 -21 0 -19 4 23 48 76 78
97 142 61 182 -10 10 -48 40 -84 67 -37 26 -97 75 -134 108 -103 91 -100 90
-133 67 -48 -35 -231 -232 -251 -271 -11 -20 -31 -42 -44 -48 -14 -7 -33 -25
-43 -42 -10 -17 -26 -31 -36 -31 -9 0 -28 -15 -42 -33 -14 -18 -36 -39 -48
-46 -13 -7 -38 -32 -57 -57 -18 -24 -49 -51 -67 -60 -19 -9 -46 -35 -61 -58
-15 -22 -65 -70 -111 -106 -100 -78 -222 -205 -304 -317 -33 -45 -68 -85 -77
-88 -18 -5 -41 -45 -41 -69 0 -8 -6 -19 -14 -25 -8 -7 -17 -24 -21 -38 -3 -15
-20 -42 -36 -61 -17 -19 -38 -51 -47 -71 -24 -50 -38 -58 -115 -66 -48 -5 -67
-11 -64 -19 3 -8 -19 -24 -53 -40 -32 -15 -66 -35 -77 -44 -10 -10 -46 -41
-81 -71 -35 -30 -69 -66 -77 -80 -7 -14 -23 -37 -34 -50 -17 -20 -21 -21 -21
-7 0 10 5 27 11 38 7 13 7 24 1 30 -11 11 -36 -77 -52 -186 -7 -43 -13 -171
-14 -285 -3 -170 -7 -220 -24 -286 -39 -151 -82 -389 -82 -458 0 -38 5 -122
11 -186 11 -123 2 -483 -23 -856 l-11 -180 -54 -57 c-60 -64 -60 -64 -38 -210
11 -72 12 -118 5 -175 -5 -43 -12 -117 -15 -166 l-7 -88 -38 -19 c-59 -30 -65
-62 -20 -113 23 -26 30 -44 30 -75 0 -60 -7 -70 -76 -113 -71 -45 -118 -94
-141 -148 -9 -20 -38 -80 -65 -133 -80 -158 -124 -295 -143 -443 -9 -72 -22
-155 -30 -185 -8 -30 -19 -93 -26 -140 -6 -47 -24 -114 -40 -151 -31 -72 -44
-123 -54 -217 -5 -47 -15 -75 -40 -112 -39 -58 -68 -131 -85 -215 -6 -33 -40
-155 -75 -270 -70 -232 -81 -284 -125 -590 -20 -144 -41 -244 -64 -317 -30
-96 -34 -118 -32 -212 0 -57 -2 -102 -7 -99 -8 5 -14 -9 -21 -57 -18 -120 -33
-162 -80 -233 -10 -15 -16 -36 -13 -47 3 -11 1 -18 -4 -14 -5 3 -9 -2 -9 -10
0 -9 -4 -16 -9 -16 -4 0 -24 -38 -44 -85 -26 -62 -49 -99 -84 -133 -26 -26
-59 -70 -73 -97 -14 -27 -54 -78 -91 -114 -60 -60 -130 -150 -201 -256 -40
-59 -176 -366 -282 -634 -100 -252 -161 -423 -249 -696 -30 -93 -66 -188 -81
-209 -14 -21 -26 -47 -26 -56 0 -32 -147 -314 -179 -344 -28 -27 -29 -31 -16
-47 9 -9 15 -20 13 -25 -3 -13 29 -70 55 -96 92 -92 251 -184 268 -156 7 10 9
9 9 -4 0 -12 7 -17 23 -17 12 1 31 -2 42 -6 16 -5 17 -5 5 4 -10 7 -11 11 -2
11 6 0 12 8 12 18 0 14 -2 15 -10 2 -12 -19 -22 -8 -14 14 9 24 28 14 35 -20
4 -16 7 -24 8 -19 1 6 5 48 10 95 6 47 18 108 29 135 11 28 29 77 42 110 60
163 84 212 128 260 26 28 56 53 67 58 11 4 29 23 40 41 22 39 235 288 325 381
32 33 78 92 103 130 25 39 77 113 116 165 78 105 193 328 285 555 l57 140 80
70 c60 53 82 80 91 110 8 25 28 54 55 78 43 39 56 64 28 53 -23 -8 -45 4 -45
25 0 14 -10 20 -40 25 -26 4 -40 12 -40 21 0 10 6 13 16 9 12 -5 15 -2 11 13
-3 15 4 21 34 30 39 12 48 24 29 36 -5 3 -10 1 -10 -4 0 -18 -39 -12 -60 9
-12 12 -25 18 -29 15 -5 -3 -7 4 -4 15 4 13 0 20 -9 20 -10 0 -14 8 -13 25 2
15 -2 25 -10 25 -7 0 -16 7 -19 16 -9 24 -8 26 14 19 15 -5 18 -3 14 9 -3 9
-11 16 -17 16 -6 0 -7 3 -4 7 4 3 2 12 -4 19 -7 8 -7 14 1 19 6 4 4 14 -7 29
-14 18 -23 22 -39 15 -19 -6 -23 -4 -26 19 -3 15 -7 34 -9 42 -3 10 2 14 13
12 12 -2 15 3 11 18 -4 16 -2 19 11 14 9 -3 16 -1 16 5 0 6 -8 11 -17 11 -13
0 -14 3 -6 11 6 6 9 18 6 25 -3 8 -1 14 5 14 5 0 10 11 9 25 0 26 19 55 35 55
12 0 109 97 107 107 -1 4 3 19 9 33 6 14 11 19 11 11 1 -8 8 -11 21 -8 11 3
18 1 14 -4 -3 -5 4 -9 16 -9 17 0 19 3 10 19 -7 14 -7 22 1 26 6 4 13 -2 16
-14 3 -12 12 -22 19 -22 31 -3 35 -4 42 -15 9 -15 53 -21 70 -11 6 5 12 6 12
3 0 -2 14 -1 31 4 17 5 40 5 53 0 26 -10 48 1 44 21 -2 10 5 13 22 11 23 -2
24 -2 5 11 -18 14 -18 15 4 22 12 4 20 9 17 12 -3 4 -1 12 5 20 7 7 12 23 13
36 1 13 11 26 24 32 12 5 22 13 22 18 0 4 -4 5 -10 2 -5 -3 -10 -1 -10 4 0 6
7 11 15 11 8 0 15 7 15 15 0 16 45 26 108 22 39 -2 43 -4 39 -24 -6 -30 4 -29
32 3 17 20 30 25 52 22 20 -3 30 0 34 11 2 9 27 98 54 198 52 191 69 231 134
328 58 86 138 162 245 233 92 61 167 117 294 220 37 29 72 51 78 47 6 -4 27
-39 47 -78 19 -40 113 -211 208 -382 118 -213 184 -343 210 -417 22 -59 46
-110 55 -114 8 -3 47 -8 86 -11 l70 -6 36 -56 c48 -75 143 -266 212 -430 l57
-133 -15 -39 c-9 -22 -16 -55 -16 -75 0 -20 -18 -102 -40 -182 -55 -202 -111
-463 -117 -547 -7 -91 8 -185 52 -319 l35 -110 -5 -408 c-5 -382 -7 -412 -26
-461 -27 -67 -20 -97 33 -154 65 -69 71 -73 145 -113 83 -44 117 -54 142 -40
14 7 28 5 50 -6 17 -9 59 -16 94 -17 l62 -2 3 47 c3 44 -10 65 -21 36 -3 -7
-5 5 -5 27 0 33 1 36 7 15 5 -17 9 4 14 66 15 203 82 479 233 953 30 95 53
175 51 178 -3 2 -8 -5 -12 -16 -10 -32 -121 -77 -220 -88 -86 -9 -105 -7 -105
10 0 18 39 53 70 62 22 7 23 6 11 -8 -15 -19 -12 -21 46 -31 46 -8 141 28 187
70 31 29 42 48 57 107 38 148 61 291 56 348 -3 36 0 63 9 80 7 13 13 40 14 61
0 24 14 60 40 106 43 74 57 148 23 121 -17 -13 -17 -13 0 13 21 34 22 54 1 62
-9 4 -14 13 -10 21 3 9 -1 15 -10 15 -22 0 -94 75 -94 98 0 14 -2 15 -10 2 -9
-13 -14 -8 -11 12 0 4 -8 10 -19 13 -13 4 -20 15 -20 30 0 18 -4 23 -16 18
-13 -5 -15 -1 -9 18 5 18 4 20 -4 9 -9 -12 -11 -12 -17 3 -5 14 -9 15 -20 6
-12 -10 -13 -9 -8 5 4 10 1 16 -8 16 -8 0 -25 10 -38 22 l-23 21 22 8 c26 10
28 19 2 12 -16 -4 -19 -1 -14 16 3 13 1 21 -6 21 -7 0 -10 4 -7 9 4 5 -3 7
-14 4 -26 -7 -95 64 -80 82 6 7 8 20 4 29 -7 18 -24 22 -24 5 0 -8 -5 -7 -15
1 -13 11 -13 15 -3 22 10 7 10 10 -3 18 -10 6 -15 21 -14 40 2 26 -1 31 -17
27 -19 -5 -25 8 -8 18 6 3 10 12 10 18 0 7 -4 6 -10 -3 -5 -8 -12 -11 -17 -7
-4 4 -1 17 6 29 11 18 11 20 -2 15 -20 -7 -7 53 13 64 13 6 230 57 320 75 46
9 149 56 178 82 l23 21 -12 158 c-7 87 -16 160 -20 163 -7 5 -8 43 -9 219 0
18 -3 38 -7 45 -4 6 -8 25 -9 41 -2 41 -34 246 -41 265 -3 8 -8 26 -10 39 -2
14 -9 33 -15 44 -5 11 -11 29 -13 41 -7 54 -122 346 -143 364 -9 7 -11 10 -3
6 11 -6 13 -3 7 12 -5 10 -15 39 -24 64 -42 125 -58 156 -101 200 -25 26 -51
46 -56 44 -6 -2 -10 9 -10 25 -1 16 2 28 6 25 20 -12 25 141 6 195 -9 27 -20
37 -44 43 -18 5 -40 19 -48 32 -17 25 -29 103 -25 151 12 120 -5 164 -57 150
-36 -11 -54 -7 -70 13 -15 20 -17 36 -3 27 6 -4 8 17 4 58 -5 51 -3 67 11 80
9 9 14 21 11 25 -3 5 6 30 19 57 27 53 31 75 14 92 -8 8 -8 13 0 17 28 17 3
74 -64 149 -9 10 -15 20 -13 21 1 1 47 37 101 80 115 91 170 165 187 254 6 31
13 67 15 79 6 27 82 140 143 212 35 41 47 65 54 105 5 28 6 236 2 462 -9 537
-8 546 130 939 13 39 33 106 44 150 27 109 97 300 123 336 74 104 415 249 824
349 136 34 195 54 295 102 69 33 162 72 208 88 140 47 338 183 363 249 16 42
11 164 -10 253 -37 156 -106 317 -195 456 -24 37 -49 85 -56 107 -6 22 -37 87
-68 145 -93 174 -102 196 -167 389 -104 308 -114 335 -139 357 -13 11 -63 33
-112 48 -49 15 -95 30 -103 32 -10 3 -6 13 17 37 38 39 41 77 11 106 -13 12
-19 26 -15 36 3 9 2 13 -4 10 -6 -3 -10 -2 -10 3 0 5 -41 -8 -91 -29 -119 -52
-240 -86 -325 -93 l-69 -5 150 53 c151 53 289 110 313 129 10 8 10 12 1 18 -7
4 -37 -4 -68 -18 -132 -60 -351 -118 -351 -93 0 9 17 16 151 64 131 47 256
105 243 114 -20 13 -32 47 -27 75 7 33 -16 36 -62 9z m173 -307 c-3 -3 -9 2
-12 12 -6 14 -5 15 5 6 7 -7 10 -15 7 -18z m-83 -100 c21 -22 125 -234 125
-254 0 -9 -178 -71 -202 -71 -7 0 -30 16 -51 35 -21 19 -47 37 -58 40 -11 4
-24 18 -29 31 -5 13 -16 24 -25 24 -21 0 -19 13 5 28 17 10 18 15 8 33 -11 18
-10 23 1 27 7 2 23 14 34 25 30 30 128 87 138 81 5 -3 12 2 15 10 8 21 13 20
39 -9z m-1893 -202 c-6 -3 -9 -10 -6 -16 4 -7 1 -7 -7 1 -12 11 -12 14 1 22 8
5 17 6 20 3 3 -3 -1 -8 -8 -10z m628 -84 c0 -6 -4 -7 -10 -4 -5 3 -10 11 -10
16 0 6 5 7 10 4 6 -3 10 -11 10 -16z m45 11 c-3 -5 -10 -10 -16 -10 -5 0 -9 5
-9 10 0 6 7 10 16 10 8 0 12 -4 9 -10z m1068 -18 c25 -20 33 -33 27 -42 -7
-11 -14 -9 -34 13 -14 15 -22 27 -18 27 4 0 -2 7 -12 15 -11 8 -15 15 -9 15 6
0 26 -13 46 -28z m-763 2 c0 -8 -4 -12 -10 -9 -5 3 -10 10 -10 16 0 5 5 9 10
9 6 0 10 -7 10 -16z m-390 -4 c0 -5 -5 -10 -11 -10 -5 0 -7 5 -4 10 3 6 8 10
11 10 2 0 4 -4 4 -10z m260 -20 c0 -5 -4 -10 -10 -10 -5 0 -10 5 -10 10 0 6 5
10 10 10 6 0 10 -4 10 -10z m380 -294 c0 -3 -4 -8 -10 -11 -5 -3 -10 -1 -10 4
0 6 5 11 10 11 6 0 10 -2 10 -4z m-80 -37 c0 -6 -4 -7 -10 -4 -5 3 -10 11 -10
16 0 6 5 7 10 4 6 -3 10 -11 10 -16z m37 -105 c-3 -3 -12 -4 -19 -1 -8 3 -5 6
6 6 11 1 17 -2 13 -5z m267 -200 c9 -22 8 -24 -9 -24 -9 0 -15 -9 -15 -22 0
-17 -3 -19 -12 -10 -8 8 -8 15 0 25 7 8 9 17 6 20 -7 7 4 27 16 27 4 0 11 -7
14 -16z m-24 -109 c0 -8 -4 -15 -10 -15 -5 0 -10 7 -10 15 0 8 5 15 10 15 6 0
10 -7 10 -15z m-649 -38 c11 -10 19 -15 19 -11 0 4 11 -3 24 -16 14 -12 36
-22 49 -22 18 0 27 -9 36 -34 11 -29 16 -33 37 -28 20 5 24 3 24 -17 1 -42 73
-139 103 -139 9 0 17 -7 17 -16 0 -8 4 -13 9 -9 5 3 12 1 15 -4 4 -6 18 -6 36
-1 41 12 60 -11 24 -30 -16 -9 -28 -11 -32 -4 -8 12 -51 12 -69 1 -8 -5 -13
-4 -13 2 0 6 -9 11 -20 11 -11 0 -20 -5 -20 -11 0 -5 -5 -7 -10 -4 -6 4 -8 11
-5 16 6 9 -9 14 -30 9 -24 -4 -75 12 -75 25 0 9 -6 12 -15 9 -10 -4 -15 0 -15
11 0 13 -7 16 -32 13 -30 -3 -33 -1 -35 31 -3 38 -27 71 -52 71 -31 1 -63 38
-68 82 -6 39 -4 44 33 74 24 21 40 29 43 21 2 -7 12 -20 22 -30z m-711 -22 c0
-14 -4 -25 -10 -25 -5 0 -10 11 -10 25 0 14 5 25 10 25 6 0 10 -11 10 -25z
m1163 -345 c-3 -12 -8 -19 -11 -16 -5 6 5 36 12 36 2 0 2 -9 -1 -20z m-1492
-90 c30 -22 58 -40 64 -40 6 0 26 -16 45 -35 24 -25 29 -35 18 -35 -9 0 -23 6
-30 13 -7 7 -26 20 -41 30 -28 18 -41 28 -102 81 -48 40 -12 30 46 -14z
m-1190 -83 c-10 -9 -11 -8 -5 6 3 10 9 15 12 12 3 -3 0 -11 -7 -18z m2295 -32
c6 -14 -34 -95 -46 -95 -3 0 -6 -8 -6 -17 -1 -10 -4 -35 -9 -55 -5 -26 -4 -38
4 -38 6 0 11 -4 11 -10 0 -5 -6 -10 -14 -10 -7 0 -20 -10 -29 -22 -15 -22 -16
-22 -30 -4 -8 10 -19 16 -25 12 -8 -4 -12 0 -12 11 0 12 -7 19 -19 19 -13 0
-17 -6 -13 -21 4 -16 0 -14 -22 10 -29 33 -34 72 -11 81 8 4 15 15 15 25 0 23
16 25 36 4 21 -21 51 -19 59 4 8 25 -4 51 -23 51 -13 0 -14 2 -3 13 11 10 14
10 18 0 3 -7 11 -13 19 -13 7 0 11 6 8 13 -2 7 11 22 33 35 45 26 52 27 59 7z
m-1225 -65 c6 0 8 -9 4 -20 -7 -24 24 -82 39 -73 6 3 8 2 3 -2 -4 -5 0 -16 9
-26 15 -17 14 -17 -20 -7 -20 6 -36 14 -37 17 0 3 -2 13 -3 21 -6 28 -14 135
-9 113 2 -13 9 -23 14 -23z m190 -7 c1 -10 0 -25 -1 -33 -1 -8 1 -12 5 -8 4 4
14 1 21 -7 8 -8 22 -12 32 -9 14 5 15 4 2 -5 -8 -6 -23 -8 -34 -5 -11 4 -16 2
-12 -4 3 -5 51 -8 118 -5 90 3 123 0 162 -14 71 -26 68 -39 -7 -35 -40 2 -96
-4 -151 -17 -95 -23 -176 -27 -207 -11 -28 16 -24 56 13 117 32 53 57 68 59
36z m-166 -33 c3 -5 1 -10 -4 -10 -6 0 -11 5 -11 10 0 6 2 10 4 10 3 0 8 -4
11 -10z m861 -33 c-4 -36 -16 -52 -27 -36 -12 19 -11 25 7 43 21 21 23 20 20
-7z m99 3 c-3 -5 -13 -10 -21 -10 -8 0 -14 5 -14 10 0 6 9 10 21 10 11 0 17
-4 14 -10z m295 -11 c0 -6 -4 -7 -10 -4 -5 3 -10 11 -10 16 0 6 5 7 10 4 6 -3
10 -11 10 -16z m0 -29 c0 -12 -8 -12 -35 0 -18 8 -17 9 8 9 15 1 27 -3 27 -9z
m23 -28 c4 10 8 9 22 -3 15 -15 15 -17 -4 -22 -13 -3 -26 3 -38 16 -14 17 -14
19 -1 9 13 -10 17 -10 21 0z m-11 -39 c22 -21 38 -31 38 -23 0 8 15 0 36 -21
34 -32 35 -37 32 -92 -2 -39 1 -56 8 -53 7 3 9 -6 5 -27 -7 -35 -31 -49 -31
-18 0 15 -17 29 -67 54 -38 18 -80 41 -95 51 -29 19 -43 9 -33 -24 4 -11 2
-20 -3 -20 -6 0 -13 11 -16 25 -4 15 -14 25 -24 25 -21 0 -42 18 -42 36 0 9
14 11 48 9 l47 -5 -32 15 c-49 21 -42 41 28 84 46 28 57 27 101 -16z m-1252
17 c0 -5 3 -9 8 -8 13 2 42 -14 37 -22 -3 -4 2 -13 10 -20 21 -17 20 -71 0
-64 -8 4 -15 12 -15 19 0 7 -7 18 -15 25 -13 10 -15 9 -15 -9 0 -11 -4 -21 -9
-21 -11 0 -25 39 -17 47 3 3 -1 12 -9 20 -21 21 -18 43 5 43 11 0 20 -4 20
-10z m363 3 c-7 -2 -21 -2 -30 0 -10 3 -4 5 12 5 17 0 24 -2 18 -5z m-54 -25
c-1 -16 -3 -18 -6 -6 -2 9 -14 19 -26 21 -18 4 -17 5 6 6 22 1 27 -3 26 -21z
m-69 2 c-20 -13 -33 -13 -25 0 3 6 14 10 23 10 15 0 15 -2 2 -10z m110 -17 c1
-16 2 -16 15 1 14 19 21 11 16 -18 -1 -5 4 -5 11 1 16 13 62 -2 53 -17 -3 -5
1 -10 9 -10 16 0 31 -18 23 -27 -3 -3 -23 1 -44 8 -21 7 -47 13 -58 14 -60 5
-103 18 -98 31 5 14 33 8 45 -10 4 -6 10 -7 14 -3 4 4 2 13 -4 19 -16 16 -15
28 3 28 8 0 15 -8 15 -17z m-125 -31 c-3 -3 -11 0 -18 7 -9 10 -8 11 6 5 10
-3 15 -9 12 -12z m668 -22 c42 -19 54 -21 84 -12 32 10 34 9 31 -11 -2 -14
-11 -23 -27 -25 -23 -4 -118 18 -173 40 -32 12 -38 39 -8 33 11 -2 22 1 26 7
4 6 9 6 13 1 3 -5 28 -20 54 -33z m-547 -40 c13 -12 10 -66 -6 -84 -9 -9 -80
11 -80 23 0 4 5 12 12 19 9 9 9 12 -1 12 -8 0 -10 7 -6 21 5 14 3 19 -3 15
-13 -8 -44 3 -37 14 6 10 104 -6 121 -20z m195 20 c5 0 9 -5 9 -10 0 -7 -6 -7
-19 -1 -10 6 -21 7 -25 4 -3 -3 -6 -1 -6 6 0 8 6 11 16 7 9 -3 20 -6 25 -6z
m-414 -32 c-3 -8 -6 -5 -6 6 -1 11 2 17 5 13 3 -3 4 -12 1 -19z m397 -14 c109
-25 119 -30 128 -54 7 -21 16 -27 40 -28 44 -1 93 -62 51 -62 -34 0 -153 33
-153 42 0 5 -4 7 -9 4 -13 -8 -61 11 -61 24 0 7 6 8 19 0 28 -14 36 -12 21 5
-7 9 -22 15 -34 14 -50 -4 -84 2 -90 16 -4 12 0 14 19 9 17 -4 25 -2 25 7 0 7
-3 10 -6 7 -8 -9 -91 21 -105 38 -15 18 -23 19 155 -22z m581 -4 c3 -5 2 -10
-4 -10 -5 0 -13 5 -16 10 -3 6 -2 10 4 10 5 0 13 -4 16 -10z m-958 -15 c0 -8
-4 -12 -9 -9 -4 3 -8 9 -8 15 0 5 4 9 8 9 5 0 9 -7 9 -15z m-21 -56 c24 -59
24 -62 2 -54 -13 5 -25 30 -43 94 -14 47 19 15 41 -40z m554 21 c0 -5 -5 -10
-11 -10 -5 0 -7 5 -4 10 3 6 8 10 11 10 2 0 4 -4 4 -10z m603 -20 c9 -8 17
-21 17 -29 0 -19 -30 -40 -56 -41 -12 0 -38 -7 -59 -16 -25 -10 -51 -13 -79
-9 -26 4 -36 3 -28 -3 11 -7 10 -10 -3 -16 -27 -10 -32 -7 -39 18 -3 13 -9 31
-12 40 -5 12 0 16 20 16 18 0 24 -4 20 -15 -4 -8 -1 -15 5 -15 6 0 11 5 11 10
0 6 9 10 20 10 24 0 26 15 4 24 -9 4 -14 9 -11 13 4 3 13 0 21 -6 12 -10 22
-10 47 3 19 9 35 12 38 7 4 -5 14 -4 24 4 14 10 15 14 5 19 -7 3 -2 4 12 3 14
-1 33 -9 43 -17z m-223 0 c12 -7 8 -10 -15 -10 -16 0 -37 5 -45 10 -12 7 -8
10 15 10 17 0 37 -5 45 -10z m-883 -6 c-3 -3 -12 -4 -19 -1 -8 3 -5 6 6 6 11
1 17 -2 13 -5z m152 -15 c17 -6 31 -17 31 -25 0 -8 6 -17 14 -20 8 -3 12 -12
9 -20 -3 -8 1 -22 8 -31 13 -15 10 -15 -26 -9 -53 10 -78 25 -71 42 3 8 1 14
-4 14 -11 0 -14 43 -3 53 8 9 4 9 42 -4z m-124 -77 c-9 -9 -29 27 -32 58 -2
21 1 18 18 -13 11 -22 18 -42 14 -45z m1121 0 c-11 -10 -13 3 -7 43 l6 40 3
-39 c2 -21 1 -41 -2 -44z m-819 32 c-3 -3 -12 -4 -19 -1 -8 3 -5 6 6 6 11 1
17 -2 13 -5z m853 -9 c-7 -9 -15 -13 -17 -11 -7 7 7 26 19 26 6 0 6 -6 -2 -15z
m-492 -32 c6 -16 13 -36 16 -45 3 -10 18 -20 33 -23 15 -3 46 -15 68 -26 31
-15 34 -18 13 -14 -16 3 -28 1 -28 -5 0 -13 -47 -13 -55 0 -4 7 3 9 22 5 23
-4 24 -4 8 4 -11 5 -33 10 -48 10 -28 1 -33 7 -41 53 -2 14 -9 36 -16 47 -8
17 -8 21 3 21 8 0 19 -12 25 -27z m-203 7 c-3 -5 -12 -7 -20 -3 -21 7 -19 13
6 13 11 0 18 -4 14 -10z m-489 -25 c16 -18 25 -21 30 -13 5 8 16 -6 30 -37 13
-27 21 -52 18 -56 -8 -14 -67 16 -78 41 -6 14 -13 27 -17 30 -9 7 -20 60 -13
60 4 0 17 -11 30 -25z m658 -27 c-3 -4 0 -8 7 -8 7 0 9 -3 6 -7 -8 -7 -47 25
-47 39 0 4 9 3 19 -4 11 -7 17 -16 15 -20z m383 2 c-14 -16 -27 -34 -29 -40
-2 -6 -18 -13 -36 -16 -27 -4 -31 -3 -25 12 4 12 3 15 -5 10 -7 -4 -12 -13
-12 -21 0 -10 -5 -11 -25 -2 -16 8 -25 20 -25 35 0 19 5 22 38 21 30 0 33 -2
17 -9 -19 -8 -19 -9 2 -9 12 -1 25 -6 28 -11 9 -15 35 7 34 29 0 10 -2 11 -6
4 -5 -14 -33 -18 -33 -4 0 9 54 28 83 30 17 1 16 -2 -6 -29z m-846 -22 c42
-12 44 -14 29 -52 -9 -26 3 -38 13 -13 3 7 6 5 6 -6 1 -25 -29 -34 -44 -14 -7
10 -20 17 -30 17 -14 0 -15 3 -5 15 10 12 10 15 0 15 -13 0 -39 28 -40 43 0
10 27 9 71 -5z m-107 -114 c9 -3 16 -10 16 -15 0 -14 -24 -11 -46 6 -16 12
-17 14 -2 15 9 0 23 -3 32 -6z m718 -65 c63 -17 64 -64 4 -159 -20 -30 -44
-68 -53 -84 -10 -15 -28 -42 -40 -60 -13 -17 -31 -44 -40 -60 -10 -15 -32 -46
-50 -67 -30 -37 -92 -157 -108 -206 -5 -17 -14 -23 -36 -23 -16 0 -29 5 -29
13 0 25 59 134 112 207 30 42 69 102 87 134 18 31 51 78 73 103 22 26 44 57
49 71 17 45 7 52 -81 52 -87 0 -89 1 -69 59 11 31 12 31 77 31 37 0 84 -5 104
-11z m-302 -2894 c7 -9 11 -17 8 -20 -2 -2 -12 4 -21 15 -9 11 -13 20 -8 20 5
0 14 -7 21 -15z m-2506 -2010 c-4 -8 -10 -15 -15 -15 -5 0 -9 7 -9 15 0 8 7
15 15 15 9 0 12 -6 9 -15z m3078 -18 c7 -7 22 -18 33 -25 14 -8 15 -11 5 -11
-8 0 -28 11 -45 24 -16 14 -25 25 -18 25 6 0 18 -6 25 -13z m-2919 -112 c-7
-11 -9 -4 -10 22 -1 21 2 42 5 48 10 15 14 -52 5 -70z m-110 28 c4 -2 7 -14 7
-27 0 -12 -3 -26 -7 -30 -5 -4 -12 -30 -18 -57 -8 -40 -16 -54 -42 -70 l-32
-21 -21 34 c-22 37 -27 78 -8 78 9 0 9 3 0 12 -19 19 -15 86 6 91 18 6 102 -2
115 -10z m64 -53 c1 -11 -4 -20 -13 -20 -8 0 -14 9 -14 20 0 11 6 20 13 20 7
0 13 -9 14 -20z m25 -92 c-8 -8 -9 -4 -5 13 4 13 8 18 11 10 2 -7 -1 -18 -6
-23z m-76 -14 c-4 -14 -9 -24 -12 -21 -3 2 -2 17 2 31 3 15 9 25 11 22 3 -3 2
-17 -1 -32z m-585 -868 c-8 -10 -9 -16 -1 -21 15 -9 12 -25 -5 -25 -18 0 -20
-17 -2 -23 6 -2 8 -8 4 -13 -14 -14 -27 19 -21 51 8 37 12 45 26 45 7 0 6 -5
-1 -14z m3351 -133 c-6 -2 -10 -9 -6 -14 3 -5 1 -9 -4 -9 -6 0 -12 7 -16 15
-4 11 1 15 17 14 12 0 16 -3 9 -6z m299 -456 c-10 -9 -11 -8 -5 6 3 10 9 15
12 12 3 -3 0 -11 -7 -18z m-3451 -27 c0 -5 -4 -10 -10 -10 -5 0 -10 5 -10 10
0 6 5 10 10 10 6 0 10 -4 10 -10z m-1062 -822 c17 -17 15 -26 -5 -24 -13 1
-17 -5 -15 -23 13 -89 271 -191 451 -178 76 6 76 6 41 -10 -53 -24 -188 -21
-277 6 -109 33 -173 66 -225 115 -51 48 -61 76 -27 76 11 0 17 4 14 10 -18 29
19 52 43 28z"/>
<path d="M5261 11594 c0 -11 3 -14 6 -6 3 7 2 16 -1 19 -3 4 -6 -2 -5 -13z"/>
<path d="M6460 11351 c0 -41 -1 -43 -25 -37 -14 3 -36 9 -50 12 -44 11 -27
-11 20 -25 61 -18 70 -13 66 40 -4 58 -11 64 -11 10z"/>
<path d="M6290 11374 c0 -8 43 -43 53 -44 17 0 5 16 -23 32 -17 9 -30 15 -30
12z"/>
<path d="M5828 11223 c7 -3 16 -2 19 1 4 3 -2 6 -13 5 -11 0 -14 -3 -6 -6z"/>
<path d="M6265 11200 c3 -5 14 -10 23 -10 15 0 15 2 2 10 -20 13 -33 13 -25 0z"/>
<path d="M5321 11074 c0 -11 3 -14 6 -6 3 7 2 16 -1 19 -3 4 -6 -2 -5 -13z"/>
<path d="M3260 5740 c0 -5 5 -10 10 -10 6 0 10 5 10 10 0 6 -4 10 -10 10 -5 0
-10 -4 -10 -10z"/>
<path d="M1862 3371 c-11 -7 -11 -9 2 -14 10 -4 16 -1 16 8 0 17 -1 17 -18 6z"/>
<path d="M6622 13575 c-36 -19 -38 -26 -4 -19 27 5 35 1 63 -30 64 -73 111
-71 65 3 -21 32 -32 41 -54 41 -15 0 -32 4 -37 8 -6 5 -20 4 -33 -3z"/>
<path d="M6360 13401 c-8 -6 -17 -8 -20 -6 -3 2 -17 -5 -30 -16 l-25 -20 40
16 c22 9 44 20 50 26 12 11 4 11 -15 0z"/>
<path d="M6610 13003 c8 -3 24 -10 35 -16 18 -9 19 -9 6 6 -7 10 -23 17 -35
16 -14 0 -16 -2 -6 -6z"/>
<path d="M6770 12791 c0 -5 7 -11 15 -15 8 -3 15 -1 15 3 0 5 -7 11 -15 15 -8
3 -15 1 -15 -3z"/>
<path d="M6816 12737 c3 -10 9 -15 12 -12 3 3 0 11 -7 18 -10 9 -11 8 -5 -6z"/>
<path d="M6891 12594 c0 -11 3 -14 6 -6 3 7 2 16 -1 19 -3 4 -6 -2 -5 -13z"/>
<path d="M4400 12130 c-17 -5 -8 -7 28 -5 30 2 56 6 59 9 9 8 -57 6 -87 -4z"/>
<path d="M4320 12099 c0 -5 -4 -7 -10 -4 -5 3 -18 2 -27 -4 -14 -8 -11 -11 21
-16 42 -8 73 8 46 25 -20 13 -30 12 -30 -1z"/>
<path d="M4251 12073 c-1 -6 -15 -16 -32 -22 -31 -11 -130 -105 -135 -128 -5
-26 23 -11 71 38 28 28 71 62 98 75 48 25 62 40 27 31 -10 -3 -21 0 -24 7 -3
8 -5 8 -5 -1z"/>
<path d="M6165 4770 c3 -5 8 -10 11 -10 2 0 4 5 4 10 0 6 -5 10 -11 10 -5 0
-7 -4 -4 -10z"/>
<path d="M2900 4661 c0 -12 5 -21 10 -21 6 0 10 6 10 14 0 8 -4 18 -10 21 -5
3 -10 -3 -10 -14z"/>
<path d="M3313 4587 c4 -10 -2 -13 -19 -9 -14 2 -24 0 -24 -7 0 -7 6 -9 13 -6
6 4 4 0 -7 -9 -15 -12 -16 -17 -5 -29 10 -10 18 -11 36 -3 12 6 23 15 23 19 0
5 4 6 9 3 12 -8 22 20 15 39 -4 8 -15 15 -26 15 -13 0 -18 -5 -15 -13z m-13
-47 c0 -5 -5 -10 -11 -10 -5 0 -7 5 -4 10 3 6 8 10 11 10 2 0 4 -4 4 -10z"/>
<path d="M5435 2280 c3 -5 8 -10 11 -10 2 0 4 5 4 10 0 6 -5 10 -11 10 -5 0
-7 -4 -4 -10z"/>
<path d="M5401 2254 c0 -11 3 -14 6 -6 3 7 2 16 -1 19 -3 4 -6 -2 -5 -13z"/>
<path d="M5455 2239 c-4 -6 -13 -8 -21 -5 -20 8 -18 -29 5 -97 21 -60 75 -147
92 -147 6 0 7 -5 3 -12 -4 -7 -3 -8 5 -4 6 4 18 3 26 -4 7 -6 46 -13 87 -16
54 -3 68 -1 56 6 -10 6 -18 18 -18 26 0 8 -6 17 -14 20 -8 3 -17 16 -20 28 -6
23 -51 51 -67 41 -5 -3 -6 1 -3 9 4 10 -3 19 -19 27 -17 8 -23 17 -20 30 6 21
-12 27 -20 7 -3 -8 -6 -5 -6 5 -1 10 -6 15 -12 12 -6 -4 -13 2 -16 13 -3 11
-11 23 -18 26 -8 3 -11 13 -8 25 6 22 -1 28 -12 10z m25 -58 c0 -5 -3 -17 -6
-26 -5 -12 -9 -14 -14 -4 -5 7 -6 18 -3 26 6 15 23 18 23 4z"/>
<path d="M5492 2230 c0 -14 2 -19 5 -12 2 6 2 18 0 25 -3 6 -5 1 -5 -13z"/>
<path d="M5112 2112 c-16 -54 -15 -66 9 -88 16 -14 19 -26 14 -50 -3 -18 -1
-43 5 -56 9 -18 8 -30 -4 -53 l-16 -30 53 -6 c87 -10 100 -17 95 -50 -7 -46
20 -63 93 -60 109 4 192 -52 317 -216 35 -46 61 -83 58 -83 -3 0 4 -20 14 -44
20 -43 25 -156 8 -156 -5 0 -8 -4 -8 -10 0 -5 10 -10 23 -10 12 0 32 -7 44
-15 24 -17 46 -82 41 -118 -4 -37 10 -47 70 -47 54 0 60 -3 110 -49 46 -43 52
-54 52 -89 0 -62 6 -72 39 -59 23 8 42 5 102 -16 91 -33 208 -52 223 -37 7 7
4 10 -9 11 -60 4 -73 7 -107 19 -21 8 -38 17 -38 21 0 4 -13 12 -30 19 -16 7
-30 17 -30 22 0 6 -7 7 -16 4 -12 -5 -15 -2 -10 9 3 9 2 13 -4 10 -14 -9 -50
13 -50 30 0 8 -17 26 -37 40 -21 14 -34 25 -29 25 14 0 -37 36 -60 44 -12 4
-34 26 -50 49 -15 23 -38 50 -51 60 -29 23 -56 74 -49 93 3 8 1 14 -5 14 -6 0
-7 5 -3 12 4 6 -5 22 -22 36 -16 13 -23 21 -16 18 15 -9 16 10 1 19 -6 4 -8
13 -5 21 3 7 1 16 -4 19 -6 4 -10 15 -10 26 0 10 -5 19 -11 19 -7 0 -9 10 -5
24 3 14 2 28 -4 31 -6 3 -7 17 -4 31 5 18 2 24 -10 24 -9 0 -15 5 -13 12 1 7
-4 13 -10 14 -7 1 -16 2 -19 3 -4 0 -1 8 6 16 10 12 9 16 -4 21 -9 3 -16 14
-16 25 0 10 -9 24 -20 32 -11 8 -17 17 -12 21 16 16 -3 60 -21 49 -4 -2 -7 -1
-6 4 5 27 -3 53 -16 53 -8 0 -15 9 -15 21 0 11 -4 17 -10 14 -5 -3 -10 0 -10
8 0 10 -7 13 -20 10 -16 -4 -19 -2 -13 12 5 15 2 17 -14 13 -16 -4 -23 0 -28
16 -7 19 -8 19 -12 2 -4 -14 -11 -17 -36 -12 -18 3 -27 3 -22 -2 12 -8 13 -27
3 -38 -5 -4 -8 0 -8 9 0 12 -8 17 -26 17 -14 0 -23 -4 -19 -10 3 -5 3 -10 -1
-10 -12 0 -84 82 -84 96 0 8 -4 14 -10 14 -5 0 -7 -7 -4 -15 5 -13 1 -12 -25
2 -17 10 -31 21 -31 24 0 12 -50 59 -63 59 -20 0 -54 51 -69 105 l-14 47 -12
-40z m45 -154 c-3 -8 -6 -5 -6 6 -1 11 2 17 5 13 3 -3 4 -12 1 -19z m593 -509
c0 -4 -7 -6 -15 -3 -8 4 -15 10 -15 15 0 4 7 6 15 3 8 -4 15 -10 15 -15z m28
-70 c-3 -8 -7 -3 -11 10 -4 17 -3 21 5 13 5 -5 8 -16 6 -23z"/>
<path d="M5580 2130 c0 -5 5 -10 11 -10 5 0 7 5 4 10 -3 6 -8 10 -11 10 -2 0
-4 -4 -4 -10z"/>
<path d="M5420 1871 c0 -5 5 -13 10 -16 6 -3 10 -2 10 4 0 5 -4 13 -10 16 -5
3 -10 2 -10 -4z"/>
<path d="M1140 1616 c0 -18 45 -23 55 -6 3 6 0 10 -9 10 -8 0 -21 3 -30 6 -11
4 -16 1 -16 -10z"/>
<path d="M1070 1286 c0 -30 -2 -61 -5 -69 -3 -7 4 -25 15 -38 l21 -24 -7 35
c-5 19 -8 61 -8 93 -1 31 -4 57 -8 57 -5 0 -8 -24 -8 -54z"/>
<path d="M1095 1084 c12 -97 16 -114 27 -114 6 0 8 11 4 28 -3 15 -9 49 -12
75 -4 26 -11 50 -16 53 -6 4 -7 -13 -3 -42z"/>
<path d="M6464 1086 c-3 -8 -20 -18 -37 -22 -27 -6 -29 -8 -14 -19 9 -7 17
-16 17 -20 0 -13 62 -65 78 -65 12 0 13 9 9 44 -11 75 -39 119 -53 82z"/>
<path d="M794 864 c0 -24 3 -44 7 -44 3 0 10 -19 14 -42 4 -24 9 -50 11 -58 2
-8 6 -39 8 -69 3 -42 9 -59 28 -73 42 -32 97 -18 149 39 48 51 66 103 30 83
-28 -15 -78 -12 -115 5 -32 16 -99 117 -112 172 -10 40 -20 34 -20 -13z"/>
</g>
</svg>
