<?xml version="1.0" standalone="no"?>
<!DOCTYPE svg PUBLIC "-//W3C//DTD SVG 20010904//EN"
 "http://www.w3.org/TR/2001/REC-SVG-20010904/DTD/svg10.dtd">
<svg version="1.0" xmlns="http://www.w3.org/2000/svg"
 width="256.000000pt" height="256.000000pt" viewBox="0 0 256.000000 256.000000"
 preserveAspectRatio="xMidYMid meet">

<g transform="translate(0.000000,256.000000) scale(0.100000,-0.100000)"
fill="#000000" stroke="none">
<path d="M1091 2424 c-34 -29 -55 -89 -45 -130 6 -25 8 -23 24 22 14 42 20 49
41 46 13 -1 52 -3 87 -3 56 -1 62 -3 62 -23 0 -11 5 -28 10 -36 7 -11 10 -2
10 32 0 41 -5 52 -35 83 -46 46 -106 49 -154 9z"/>
<path d="M1119 2281 c8 -5 10 -14 6 -22 -6 -11 -5 -11 5 -2 14 12 6 33 -13 33
-8 0 -7 -3 2 -9z"/>
<path d="M1208 2279 c-10 -5 -18 -18 -18 -27 0 -13 2 -14 9 -4 4 8 11 13 15
12 4 -1 12 1 19 3 9 4 9 6 -1 6 -7 1 -10 6 -7 11 8 12 5 12 -17 -1z"/>
<path d="M1185 2220 c-3 -5 -1 -10 4 -10 6 0 11 5 11 10 0 6 -2 10 -4 10 -3 0
-8 -4 -11 -10z"/>
<path d="M1020 2098 c-25 -10 -64 -22 -88 -28 -78 -20 -109 -106 -134 -372
-10 -112 -10 -118 11 -152 l22 -35 47 14 c54 17 66 8 57 -40 -18 -107 -19
-102 8 -120 25 -16 25 -17 9 -45 -14 -25 -15 -38 -4 -112 7 -46 12 -100 12
-120 0 -57 47 -228 74 -269 25 -37 26 -37 68 -28 24 5 54 19 68 29 14 11 46
33 73 48 37 21 46 31 43 47 -3 11 -8 40 -11 65 -6 40 -5 43 8 28 13 -17 15
-17 32 2 19 21 73 40 115 40 46 0 100 -20 100 -37 0 -9 2 -14 5 -11 3 2 -5 49
-17 104 -19 82 -24 93 -28 66 -9 -56 -25 -31 -22 33 2 33 3 95 4 138 0 73 -2
81 -28 108 -26 27 -28 37 -30 107 0 42 -4 115 -8 162 -7 79 -6 87 16 119 12
19 28 36 33 38 6 2 54 -25 108 -60 103 -67 157 -128 135 -154 -8 -10 -4 -13
16 -13 29 0 56 41 56 86 0 41 -94 155 -223 273 -68 62 -78 68 -128 74 -30 3
-67 12 -84 21 -54 29 -72 22 -80 -30 -6 -40 -11 -47 -42 -60 -20 -9 -47 -12
-63 -9 -35 8 -77 52 -82 85 l-3 26 -45 -18z m328 -220 c-2 -13 -7 -23 -13 -23
-5 0 -11 10 -13 23 -2 15 2 22 13 22 11 0 15 -7 13 -22z m-118 -78 c0 -31 -48
-120 -65 -120 -8 0 -15 2 -15 5 0 12 40 84 50 90 16 10 1 25 -26 25 -13 0 -24
5 -24 10 0 6 18 10 40 10 34 0 40 -3 40 -20z m-98 -47 c21 -19 24 -35 4 -27
-9 3 -17 -5 -24 -24 -5 -16 -23 -39 -38 -51 -130 -99 -157 -109 -180 -62 -17
34 1 79 34 87 44 9 82 26 82 36 0 5 7 20 16 33 20 30 77 34 106 8z m323 -523
c8 -13 -5 -13 -25 0 -13 8 -13 10 2 10 9 0 20 -4 23 -10z"/>
<path d="M1168 2073 c6 -2 18 -2 25 0 6 3 1 5 -13 5 -14 0 -19 -2 -12 -5z"/>
<path d="M1518 892 c-4 -14 -24 -24 -77 -37 -39 -9 -71 -20 -71 -24 0 -4 23
-33 50 -66 28 -33 50 -67 50 -77 0 -10 11 -25 25 -34 24 -16 27 -16 45 1 17
16 20 31 20 120 0 87 -3 104 -19 119 -17 16 -19 16 -23 -2z"/>
<path d="M1263 701 c-14 -23 -73 -51 -107 -51 -33 0 -33 -9 4 -55 17 -21 30
-44 30 -51 0 -19 107 -110 156 -133 23 -11 45 -25 49 -31 10 -17 21 -12 33 15
18 38 15 60 -11 92 -13 15 -27 44 -31 63 -7 38 -51 110 -66 110 -6 0 -18 13
-28 29 -16 27 -19 28 -29 12z"/>
<path d="M1304 379 c-3 -6 5 -23 18 -37 41 -46 50 -61 58 -95 l7 -32 25 52 25
51 -33 7 c-19 3 -34 10 -34 16 0 6 -4 8 -9 5 -12 -8 -48 21 -38 30 4 5 12 2
16 -5 6 -9 11 -10 15 -2 4 6 12 8 18 5 7 -4 8 -2 4 4 -9 15 -63 16 -72 1z"/>
<path d="M1170 345 c-13 -14 -22 -27 -19 -29 2 -2 14 10 27 25 29 36 24 38 -8
4z"/>
<path d="M1190 314 c-16 -26 -30 -52 -30 -56 0 -4 -7 -8 -15 -8 -8 0 -15 -3
-15 -7 1 -20 19 -32 56 -36 46 -5 84 -22 84 -37 0 -15 -11 -12 -26 8 -12 16
-13 16 -14 0 0 -10 -10 -18 -27 -21 -17 -2 -9 -5 20 -6 64 -2 70 17 23 69 -39
44 -49 97 -21 120 19 16 18 17 60 -61 22 -42 35 -56 35 -43 0 28 -60 118 -82
122 -12 2 -28 -12 -48 -44z"/>
<path d="M1360 140 c0 -5 5 -10 11 -10 5 0 7 5 4 10 -3 6 -8 10 -11 10 -2 0
-4 -4 -4 -10z"/>
</g>
</svg>
